<svg viewBox="0 0 32 32" xmlns="http://www.w3.org/2000/svg"><g data-name="Layer 13"><path d="M25 31H7a3 3 0 0 1-3-3V17a3 3 0 0 1 3-3h18a3 3 0 0 1 3 3v11a3 3 0 0 1-3 3ZM7 16a1 1 0 0 0-1 1v11a1 1 0 0 0 1 1h18a1 1 0 0 0 1-1V17a1 1 0 0 0-1-1Z" fill="#ffffff" class="fill-101820"></path><path d="M24 16H8a1 1 0 0 1-1-1V9a8 8 0 0 1 8-8h2a8 8 0 0 1 8 8v6a1 1 0 0 1-1 1ZM9 14h14V9a6 6 0 0 0-6-6h-2a6 6 0 0 0-6 6ZM16 23a2 2 0 1 1 2-2 2 2 0 0 1-2 2Zm0-2Z" fill="#ffffff" class="fill-101820"></path><path d="M15 22h2v4h-2z" fill="#000" class="fill-101820"></path></g></svg>